# xmcd CD database file
#
# Track frame offsets:
#	150
#	16206
#	34845
#	48574
#	57549
#	69514
#	83247
#	91098
#	100593
#	109460
#	120519
#
# Disc length: 1737 seconds
#
# Revision: 0
# Processed by: cddbd v1.5.2PL0 Copyright (c) Steve Scherf et al.
# Submitted via: CDex 1.83
#
DISCID=8b06c70b
DTITLE=AA.VV - Toquinho, Vinicius and Amigos
DYEAR=1974
DGENRE=Brasil
TTITLE0=Vinicius De Moraes, Maria Bethania E Toquinho - Apelo (V.De Moraes-B.Powell)
TTITLE1=Vinicius De Moraes, Ciro Monteiro, Toquinho -  Martirio (M.De Oliveira-H.Lobo)
TTITLE2=vinicius, Maria Creuza E Toquinho - Tomara (V.De Moraes)
TTITLE3=Sergio Endrigo E Toquinho - Poema Dos Olhos Da Amada (Poema Degli Occhi) (Soledade-De Moraes)
TTITLE4=Toquinho E Vinicius De Moraes - Samba Da Rosa (Toquinho-Vinicius De Moraes)
TTITLE5=Ciro Monteiro, Vinicius De Moraes E Toquinho  Voce Errou (C.Monteiro)
TTITLE6=Toquinho - Medo De Amar (Vire Essa Folha Do Livro) (V.De Moraes)
TTITLE7=Toquinho, Sergio Endrigo E Vinicius - La Casa (V.De Moraes-S.Bardotti)
TTITLE8=Maria Bethania E Toquinho - Viramundo (Capinan-G.Gil)
TTITLE9=Vinicius De Moraes, Maria Creuza E Toquinho - Lamento No Morro (T.Jobim-V.De Moraes)
TTITLE10=Chico Buarque, Toquinho - Desencontro (C.Barque De Hollanda)
EXTD=YEAR: 1974
EXTT0=
EXTT1=
EXTT2=
EXTT3=
EXTT4=
EXTT5=
EXTT6=
EXTT7=
EXTT8=
EXTT9=
EXTT10=
PLAYORDER=
